# xmcd CD database file
#
# Track frame offsets:
#	150
#	11998
#	32263
#	52603
#	71379
#	86048
#	97443
#	111453
#	125492
#	140275
#	155468
#	172868
#	188209
#	203789
#
# Disc length: 2900 seconds
#
# Revision: 0
# Processed by: cddbd v1.5.2PL0 Copyright (c) Steve Scherf et al.
# Submitted via: CDex 1.70beta2
#
DISCID=ba0b520e
DTITLE=Ducharme, Dan - Cdn. - OVM - Family and Friends
DYEAR=1900
DGENRE=Country
TTITLE0=My Shoes Keep Walking Back to You
TTITLE1=I Never Go Arround Mirrors
TTITLE2=It's Good to Be Back Home Again
TTITLE3=Is It Raining at Your House
TTITLE4=Silence Says It All
TTITLE5=Sidewalks of Chicago
TTITLE6=Step Aside
TTITLE7=Overnight Success
TTITLE8=On the Other Hand
TTITLE9=Where the Tallk Grass Grows
TTITLE10=Old Country
TTITLE11=He Stopped Loving Her Today
TTITLE12=Yard Sale
TTITLE13=If You've Got Time To Say Goodbye
EXTD=
EXTT0=
EXTT1=
EXTT2=
EXTT3=
EXTT4=
EXTT5=
EXTT6=
EXTT7=
EXTT8=
EXTT9=
EXTT10=
EXTT11=
EXTT12=
EXTT13=
PLAYORDER=
